<?xml version='1.0' encoding='iso-8859-1'?>
<svg version="1.1" xmlns="http://www.w3.org/2000/svg" viewBox="0 0 19.481 19.481" xmlns:xlink="http://www.w3.org/1999/xlink" enable-background="new 0 0 19.481 19.481">
  <g>
    <path d="m19.023,7.167l-6.343-.544-2.478-5.865c-0.172-0.407-0.749-0.407-0.921,0l-2.479,5.865-6.344,.544c-0.44,0.038-0.619,0.587-0.285,0.876l4.812,4.169-1.442,6.202c-0.1,0.431 0.367,0.77 0.745,0.541l5.452-3.288 5.452,3.288c0.379,0.228 0.845-0.111 0.745-0.541l-1.442-6.202 4.812-4.169c0.335-0.289 0.157-0.838-0.284-0.876zm-6.293,3.929c-0.281,0.243-0.403,0.621-0.319,0.983l.775,3.331-2.929-1.766c-0.318-0.192-0.715-0.192-1.033,0l-2.929,1.766 .775-3.331c0.084-0.361-0.039-0.74-0.319-0.983l-2.586-2.24 3.409-.293c0.37-0.032 0.691-0.266 0.836-0.607l1.331-3.15 1.331,3.15c0.144,0.342 0.466,0.576 0.836,0.607l3.409,.293-2.587,2.24z"/>
  </g>
</svg>
